# xmcd
#
# Track frame offsets: 
#        150
#        15170
#        35695
#        53797
#        73695
#        88477
#        110902
#        130442
#        156187
#
# Disc length: 2567 seconds
#
# Revision: 1
# Processed by: cddbd v1.5.2PL0 Copyright (c) Steve Scherf et al.
# Submitted via: ExactAudioCopy v0.99pb1
#
DISCID=7e0a0509
DTITLE=akiko - What's Jazz -Style-
DYEAR=2008
DGENRE=Jazz
TTITLE0=Come Together
TTITLE1=Madly
TTITLE2=What's Jazz?
TTITLE3=Ladies Love Mercedes
TTITLE4=La Vie En Rose
TTITLE5=Jazz-Introducing- How Hight Is The Moon?
TTITLE6=Love Theme From Spartacus
TTITLE7=When Life Is Over
TTITLE8=My Baby Just Cares For Me
EXTD=YEAR: 2008
EXTT0=
EXTT1=
EXTT2=
EXTT3=
EXTT4=
EXTT5=
EXTT6=
EXTT7=
EXTT8=
PLAYORDER=
